HIERARCHY
ROOT Hips
{
	OFFSET -0.001795 -0.223333 0.028219
	CHANNELS 6 Xposition Yposition Zposition Zrotation Yrotation Xrotation 
	JOINT LeftUpLeg
	{
		OFFSET 0.069520 -0.091406 -0.006815
		CHANNELS 3 Zrotation Yrotation Xrotation
		JOINT LeftLeg
		{
			OFFSET 0.034277 -0.375199 -0.004496
			CHANNELS 3 Zrotation Yrotation Xrotation
			JOINT LeftFoot
			{
				OFFSET -0.013596 -0.397961 -0.043693
				CHANNELS 3 Zrotation Yrotation Xrotation
				JOINT LeftToe
				{
					OFFSET 0.026358 -0.055791 0.119288
					CHANNELS 3 Zrotation Yrotation Xrotation
					End Site
					{
						OFFSET 0.000000 0.000000 0.000000
					}
				}
			}
		}
	}
	JOINT RightUpLeg
	{
		OFFSET -0.067670 -0.090522 -0.004320
		CHANNELS 3 Zrotation Yrotation Xrotation
		JOINT RightLeg
		{
			OFFSET -0.038290 -0.382569 -0.008850
			CHANNELS 3 Zrotation Yrotation Xrotation
			JOINT RightFoot
			{
				OFFSET 0.015774 -0.398415 -0.042312
				CHANNELS 3 Zrotation Yrotation Xrotation
				JOINT RightToe
				{
					OFFSET -0.025372 -0.048144 0.123348
					CHANNELS 3 Zrotation Yrotation Xrotation
					End Site
					{
						OFFSET 0.000000 0.000000 0.000000
					}
				}
			}
		}
	}
	JOINT Spine
	{
		OFFSET -0.002533 0.108963 -0.026696
		CHANNELS 3 Zrotation Yrotation Xrotation
		JOINT Spine1
		{
			OFFSET 0.005487 0.135180 0.001092
			CHANNELS 3 Zrotation Yrotation Xrotation
			JOINT Spine2
			{
				OFFSET 0.001457 0.052922 0.025425
				CHANNELS 3 Zrotation Yrotation Xrotation
				JOINT Neck
				{
					OFFSET -0.002778 0.213870 -0.042857
					CHANNELS 3 Zrotation Yrotation Xrotation
					JOINT Head
					{
						OFFSET 0.005152 0.064970 0.051349
						CHANNELS 3 Zrotation Yrotation Xrotation
						End Site
						{
							OFFSET 0.000000 0.000000 0.000000
						}
					}
				}
				JOINT LeftShoulder
				{
					OFFSET 0.078845 0.121749 -0.034090
					CHANNELS 3 Zrotation Yrotation Xrotation
					JOINT LeftArm
					{
						OFFSET 0.090977 0.030469 -0.008868
						CHANNELS 3 Zrotation Yrotation Xrotation
						JOINT LeftForeArm
						{
							OFFSET 0.259612 -0.012772 -0.027456
							CHANNELS 3 Zrotation Yrotation Xrotation
							JOINT LeftHand
							{
								OFFSET 0.249234 0.008986 -0.001171
								CHANNELS 3 Zrotation Yrotation Xrotation
								End Site
								{
									OFFSET 0.000000 0.000000 0.000000
								}
							}
						}
					}
				}
				JOINT RightShoulder
				{
					OFFSET -0.081759 0.118833 -0.038615
					CHANNELS 3 Zrotation Yrotation Xrotation
					JOINT RightArm
					{
						OFFSET -0.096012 0.032551 -0.009143
						CHANNELS 3 Zrotation Yrotation Xrotation
						JOINT RightForeArm
						{
							OFFSET -0.253742 -0.013329 -0.021401
							CHANNELS 3 Zrotation Yrotation Xrotation
							JOINT RightHand
							{
								OFFSET -0.255298 0.007772 -0.005559
								CHANNELS 3 Zrotation Yrotation Xrotation
								End Site
								{
									OFFSET 0.000000 0.000000 0.000000
								}
							}
						}
					}
				}
			}
		}
	}
}
MOTION
Frames: 16
Frame Time: 0.050000
-0.038586 0.928827 -0.014976 2.918776 -5.168886 -6.194732 0.788349 0.485053 5.120174 -3.214299 0.393498 2.855605 3.456600 8.218249 3.653782 0.000000 0.000000 0.000000 -11.644813 0.290657 -1.159514 4.583323 -0.351154 11.169464 -3.288437 -10.121854 5.733185 0.000000 0.000000 0.000000 6.389355 -1.252497 15.220702 -8.004155 2.517124 -25.208830 -4.479960 8.146288 24.991523 13.326778 -3.165527 -37.479805 0.000000 0.000000 0.000000 -20.278633 -14.995816 5.618072 -42.481929 -6.081807 -4.480260 -18.514248 -24.460612 4.826290 0.000000 0.000000 0.000000 32.369892 0.609409 0.421725 49.874005 11.579181 -3.094552 15.106642 23.099141 4.075458 0.000000 0.000000 0.000000 
-0.038185 0.928636 -0.015096 2.888661 -5.118917 -6.080674 0.824517 0.450329 4.773102 -3.272343 0.401713 3.231481 3.474744 8.224412 3.519697 0.000000 0.000000 0.000000 -11.860604 0.296845 -1.125692 4.978044 -0.431077 10.890183 -3.291327 -10.133597 5.761648 0.000000 0.000000 0.000000 6.364666 -1.246666 15.129389 -7.931621 2.488818 -25.381079 -4.274407 8.070369 25.024522 13.348647 -3.117836 -37.851470 0.000000 0.000000 0.000000 -20.333402 -15.012372 5.646137 -42.310197 -6.376923 -4.370369 -18.755587 -25.016488 4.996784 0.000000 0.000000 0.000000 32.235184 0.734539 0.496077 49.788671 11.820604 -2.992727 15.193007 23.148660 4.101725 0.000000 0.000000 0.000000 
-0.037773 0.928547 -0.015380 2.816474 -5.171231 -5.964334 0.950555 0.420434 4.491891 -3.415359 0.424604 3.487795 3.515930 8.286606 3.444238 0.000000 0.000000 0.000000 -11.972402 0.304062 -1.099435 5.269700 -0.487397 10.561510 -3.252306 -10.071186 5.819193 0.000000 0.000000 0.000000 6.339851 -1.242454 15.091782 -7.815618 2.456306 -25.434284 -4.171219 8.156202 24.867734 13.453133 -3.142818 -37.876843 0.000000 0.000000 0.000000 -20.247163 -14.856997 5.536919 -42.227888 -6.571628 -4.281777 -18.552266 -25.390089 5.025244 0.000000 0.000000 0.000000 32.169010 0.635769 0.441789 49.671218 11.932661 -2.932441 15.284098 23.283224 4.148024 0.000000 0.000000 0.000000 
-0.037532 0.928441 -0.015805 2.800151 -5.128232 -5.762750 0.929735 0.375453 4.010703 -3.384554 0.419778 3.891133 3.543406 8.320930 3.361971 0.000000 0.000000 0.000000 -12.212157 0.311349 -1.250115 5.708333 -0.570408 10.396740 -3.255739 -10.097982 5.893515 0.000000 0.000000 0.000000 6.238085 -1.236440 15.098785 -7.648889 2.410453 -25.526140 -4.115416 8.040372 24.713009 13.666115 -3.206015 -38.083279 0.000000 0.000000 0.000000 -20.218299 -14.779441 5.513999 -42.084493 -6.836819 -4.173057 -18.587357 -25.711160 5.102782 0.000000 0.000000 0.000000 32.043576 0.568728 0.351910 49.706408 12.023324 -2.861825 15.571755 23.575319 4.267656 0.000000 0.000000 0.000000 
-0.037457 0.928455 -0.016376 2.734095 -5.169698 -5.643536 0.996086 0.355394 3.810814 -3.389069 0.420898 3.961607 3.571753 8.373455 3.357461 0.000000 0.000000 0.000000 -12.252237 0.314341 -1.466119 5.909269 -0.606107 10.467419 -3.233911 -10.077769 5.971771 0.000000 0.000000 0.000000 6.049552 -1.224182 15.197276 -7.461570 2.356222 -25.714871 -4.125340 8.099757 24.646415 13.760778 -3.228601 -38.148106 0.000000 0.000000 0.000000 -20.049061 -14.656697 5.432561 -41.982853 -6.846724 -4.156593 -18.503909 -26.012388 5.142715 0.000000 0.000000 0.000000 32.031784 0.403486 0.250225 49.775361 11.926197 -2.901044 16.011532 23.999567 4.459396 0.000000 0.000000 0.000000 
-0.037498 0.928323 -0.017046 2.701823 -5.144615 -5.584669 1.026994 0.327086 3.511279 -3.375189 0.419012 4.303010 3.592265 8.397208 3.284391 0.000000 0.000000 0.000000 -12.251719 0.312929 -1.562942 5.988313 -0.621567 10.464404 -3.249765 -10.108354 5.969221 0.000000 0.000000 0.000000 5.884334 -1.221986 15.402645 -7.362612 2.329917 -25.781862 -4.215021 7.934571 24.423253 13.822083 -3.281245 -38.048501 0.000000 0.000000 0.000000 -19.911391 -14.381353 5.309917 -41.782022 -6.799375 -4.146499 -18.369854 -26.084408 5.127804 0.000000 0.000000 0.000000 31.927896 0.343207 0.141340 49.883608 11.820180 -2.899860 16.428587 24.324515 4.616599 0.000000 0.000000 0.000000 
-0.037523 0.928257 -0.017703 2.606592 -5.314662 -5.611061 1.098442 0.311829 3.346047 -3.329680 0.414154 4.617053 3.688202 8.571478 3.233219 0.000000 0.000000 0.000000 -12.205091 0.315484 -1.697276 6.094030 -0.636409 10.614437 -3.179089 -9.974846 5.987704 0.000000 0.000000 0.000000 5.776524 -1.229707 15.736265 -7.336821 2.314111 -26.112139 -4.147969 8.020088 24.450634 13.882837 -3.300136 -38.120351 0.000000 0.000000 0.000000 -19.791271 -14.229385 5.232384 -41.775261 -6.612054 -4.215595 -18.507975 -26.288309 5.204519 0.000000 0.000000 0.000000 32.052912 0.006627 -0.109597 49.879393 11.673499 -2.960156 16.729573 24.634292 4.755446 0.000000 0.000000 0.000000 
-0.037451 0.928253 -0.018262 2.591970 -5.522159 -5.607675 1.143097 0.295598 3.160236 -3.409675 0.431164 4.908274 3.784691 8.760124 3.251021 0.000000 0.000000 0.000000 -12.212187 0.321835 -1.847508 6.125100 -0.636123 10.713895 -3.097233 -9.817091 5.994848 0.000000 0.000000 0.000000 5.607023 -1.217844 15.927744 -7.232104 2.288291 -26.060880 -4.117950 8.016336 24.259240 13.766114 -3.258410 -38.087963 0.000000 0.000000 0.000000 -19.911346 -14.055249 5.168467 -41.770726 -6.502266 -4.241748 -18.361240 -26.368505 5.191997 0.000000 0.000000 0.000000 31.933895 0.033340 -0.149752 50.030626 11.555910 -2.970865 16.717782 25.081032 4.849811 0.000000 0.000000 0.000000 
-0.037450 0.928241 -0.018681 2.631114 -5.760904 -5.627625 1.093514 0.291837 3.094222 -3.422945 0.437207 5.044035 3.889223 8.970430 3.299357 0.000000 0.000000 0.000000 -12.200774 0.329990 -1.912936 6.024564 -0.610518 10.704947 -3.011092 -9.635042 5.947168 0.000000 0.000000 0.000000 5.491122 -1.200766 15.979210 -7.329519 2.308450 -26.074378 -4.067422 8.203813 24.368757 13.750283 -3.261093 -38.033283 0.000000 0.000000 0.000000 -20.004633 -14.017564 5.146302 -41.786657 -6.326980 -4.305819 -18.191274 -26.167762 5.110531 0.000000 0.000000 0.000000 31.994088 0.035935 -0.129331 49.856128 11.687584 -2.936006 16.824858 25.291649 4.924422 0.000000 0.000000 0.000000 
-0.037718 0.928235 -0.018974 2.629021 -6.181764 -5.841689 1.048979 0.311223 3.265891 -3.346046 0.430261 5.195893 4.067654 9.323593 3.348561 0.000000 0.000000 0.000000 -12.171474 0.341491 -1.740322 5.987340 -0.591956 10.591855 -2.834729 -9.262811 5.868692 0.000000 0.000000 0.000000 5.399646 -1.194528 16.260574 -7.458834 2.336104 -26.088226 -4.007785 8.333583 24.449187 13.808723 -3.325862 -37.961093 0.000000 0.000000 0.000000 -20.220708 -13.695354 5.015895 -41.848275 -5.900229 -4.468518 -17.969429 -26.164821 5.067616 0.000000 0.000000 0.000000 31.895154 0.115682 -0.124484 50.025653 11.769994 -2.894127 16.559377 25.382679 4.880480 0.000000 0.000000 0.000000 
-0.038415 0.928131 -0.019372 2.623383 -6.380971 -6.000032 0.927690 0.336832 3.504465 -3.052493 0.381296 5.080753 4.160664 9.507395 3.360608 0.000000 0.000000 0.000000 -12.034333 0.343614 -1.519310 5.832425 -0.559349 10.388755 -2.767008 -9.086963 5.738360 0.000000 0.000000 0.000000 5.230095 -1.173035 16.376481 -7.412031 2.329864 -25.892638 -4.081352 8.458864 24.538782 13.713872 -3.313157 -37.823212 0.000000 0.000000 0.000000 -20.382254 -13.631506 4.986019 -42.018611 -5.656492 -4.573224 -17.569955 -25.697165 4.882606 0.000000 0.000000 0.000000 32.090612 0.376435 0.063963 49.899979 12.099905 -2.783394 16.317105 25.561475 4.864750 0.000000 0.000000 0.000000 
-0.039489 0.928019 -0.019889 2.527643 -6.696173 -6.037992 1.179820 0.334502 3.499171 -3.206368 0.412455 5.192078 4.279439 9.740215 3.385223 0.000000 0.000000 0.000000 -11.807323 0.347860 -1.489768 5.744277 -0.536110 10.252461 -2.665532 -8.848825 5.621624 0.000000 0.000000 0.000000 5.096243 -1.161935 16.593465 -7.539603 2.355875 -25.932123 -3.960228 8.620657 24.619516 13.915451 -3.431204 -37.730532 0.000000 0.000000 0.000000 -20.252020 -13.384408 4.862121 -42.266430 -5.286813 -4.734043 -17.449184 -25.286348 4.777133 0.000000 0.000000 0.000000 32.030516 0.452850 0.104253 50.122923 12.300390 -2.698638 15.925764 25.557060 4.773321 0.000000 0.000000 0.000000 
-0.040706 0.928085 -0.020453 2.442115 -6.975672 -6.003785 1.253091 0.313350 3.261672 -3.055608 0.390763 5.562052 4.416422 10.013095 3.454049 0.000000 0.000000 0.000000 -11.548824 0.351344 -1.636614 5.605880 -0.503764 10.302174 -2.583131 -8.665062 5.554383 0.000000 0.000000 0.000000 5.010045 -1.146375 16.602678 -7.438399 2.328183 -25.793181 -3.967872 8.919457 24.679409 13.977094 -3.458022 -37.652325 0.000000 0.000000 0.000000 -20.299743 -13.173030 4.713588 -42.317808 -4.683607 -4.931763 -17.445678 -24.913899 4.695584 0.000000 0.000000 0.000000 32.169475 0.487402 0.182379 50.124243 12.540703 -2.628952 15.582256 25.635260 4.718854 0.000000 0.000000 0.000000 
-0.041742 0.928324 -0.020753 2.267694 -7.107182 -6.099789 1.365971 0.307884 3.203675 -2.803353 0.347779 5.895897 4.483740 10.149766 3.506080 0.000000 0.000000 0.000000 -11.242973 0.344759 -1.725280 5.530961 -0.484348 10.614723 -2.531600 -8.578731 5.597750 0.000000 0.000000 0.000000 4.969022 -1.144484 16.719046 -7.562753 2.364356 -25.575509 -3.780405 9.039869 24.726870 14.041408 -3.480677 -37.669075 0.000000 0.000000 0.000000 -20.436641 -13.133939 4.680281 -42.366588 -4.234718 -5.079934 -17.181080 -24.863914 4.626098 0.000000 0.000000 0.000000 32.249170 0.606861 0.283665 50.283586 12.686676 -2.578439 15.052769 25.410151 4.551819 0.000000 0.000000 0.000000 
-0.042437 0.928263 -0.020643 2.245474 -7.220133 -6.214956 1.362342 0.308217 3.193480 -2.683933 0.328051 6.189963 4.545661 10.267978 3.496451 0.000000 0.000000 0.000000 -11.208614 0.344751 -1.816846 5.588277 -0.487974 10.982749 -2.499504 -8.492906 5.532232 0.000000 0.000000 0.000000 4.804410 -1.131222 16.935280 -7.397702 2.330041 -25.322026 -3.841861 9.240250 24.493282 14.094292 -3.453473 -37.779770 0.000000 0.000000 0.000000 -20.500088 -13.055292 4.585351 -42.233757 -3.946807 -5.126122 -17.326090 -24.912396 4.658949 0.000000 0.000000 0.000000 32.326141 0.701885 0.399897 50.388624 12.639096 -2.594790 14.777612 25.169448 4.440849 0.000000 0.000000 0.000000 
-0.042812 0.928317 -0.020108 2.236891 -7.317121 -6.471519 1.267267 0.332074 3.426043 -2.465329 0.288982 6.368990 4.593218 10.363533 3.504342 0.000000 0.000000 0.000000 -11.279835 0.343837 -1.686594 5.751226 -0.512362 11.273015 -2.440729 -8.371097 5.525033 0.000000 0.000000 0.000000 4.706796 -1.122376 17.119820 -7.391991 2.331626 -25.255150 -3.810203 9.511631 24.673354 14.243857 -3.447281 -38.105557 0.000000 0.000000 0.000000 -20.592929 -12.966330 4.483208 -42.108180 -3.519095 -5.250794 -17.419676 -25.419117 4.771601 0.000000 0.000000 0.000000 32.499651 0.622004 0.435183 50.434949 12.713475 -2.616316 14.542442 24.758773 4.313194 0.000000 0.000000 0.000000 
